<svg version="1.1" xmlns="http://www.w3.org/2000/svg" xmlns:xlink="http://www.w3.org/1999/xlink" x="0px" y="0px"  width="108px" height="55px" viewBox="0 0 108 55">
<style type="text/css">
	.st0{fill:url(#backpath1);}
	.st2{fill:#FFFFFF;}
</style>
<radialGradient id="backpath1" cx="95.5476" cy="32.6978" r="65.6192" gradientUnits="userSpaceOnUse">
	<stop  offset="0" style="stop-color:#FEC340"/>
	<stop  offset="0.1484" style="stop-color:#F7941D"/>
	<stop  offset="1" style="stop-color:#ED1C24"/>
</radialGradient>
<path class="st0" d="M10.28,0c0,0-4.54,6.83,1.7,9.14c11.35,4.18,65.33-8.96,87.14,6.68c15.77,11.31,9.78,30.2-11.94,35.45	c-24.2,5.85-63,6.61-80.7-11.1C-3.08,30.61-2.26,12.47,10.28,0z"/>
<radialGradient id="backpath2" cx="-224.019" cy="99.9488" r="59.3541" gradientTransform="matrix(0.9238 3.100000e-03 3.100000e-03 0.8959 306.7895 -56.4009)" gradientUnits="userSpaceOnUse">
	<stop  offset="0" style="stop-color:#FFE293"/>
	<stop  offset="0.2308" style="stop-color:#F7941D"/>
	<stop  offset="1" style="stop-color:#ED1C24"/>
</radialGradient>
<path style="fill:url(#backpath2);" d="M6.71,8.64c0,0-2.05,1.94,3.73,4.03 c10.5,3.78,65.8-9.25,85.98,4.83c14.61,10.18,8.17,26.82-11.51,31.2c-22.5,5-56.77,5.12-74.43-9.49C1.1,31.45,1.07,18.74,6.71,8.64z"/>
<g class="st2">
	<path d="M31.43,27.31c0,1.17-0.17,2.28-0.48,3.37c-0.33,1.09-0.77,2.05-1.35,2.9c-1.39,2.03-3.25,3.04-5.58,3.04
		c-1.81,0-3.17-0.77-4.09-2.3c-1.56,1.52-3.2,2.3-4.92,2.3c-1.12,0-2-0.33-2.61-0.99c-0.63-0.64-0.94-1.58-0.94-2.78
		c0-0.54,0.03-1.03,0.1-1.51c0.06-0.47,0.16-0.99,0.27-1.58l0.28-1.4l0.05-0.42c0-0.29-0.06-0.46-0.17-0.52
		c-0.11-0.07-0.35-0.12-0.73-0.17c-0.27,0-0.42-0.3-0.42-0.89c0-0.63,0.43-1.11,1.28-1.46c0.85-0.35,1.67-0.62,2.46-0.81
		c0.79-0.18,1.42-0.28,1.89-0.28c0.86,0,1.28,0.41,1.28,1.21c0,0.4-0.1,1.29-0.3,2.69l-0.44,2.9c-0.03,0.16-0.08,0.44-0.13,0.81
		c-0.05,0.37-0.08,0.64-0.08,0.82c0,0.55,0.23,0.81,0.7,0.81c1.22,0,2.08-2.33,2.57-7c0.05-0.43,0.13-0.74,0.22-0.91
		c0.1-0.18,0.33-0.36,0.68-0.58c0.35-0.2,0.8-0.37,1.35-0.51c0.54-0.13,1.11-0.2,1.68-0.2c0.67,0,1.12,0.07,1.34,0.2
		c0.22,0.14,0.32,0.42,0.32,0.88c0,0.36-0.06,0.86-0.17,1.51c-0.11,0.65-0.24,1.31-0.36,1.98l-0.42,2.46l-0.15,1.22
		c0,0.87,0.38,1.32,1.15,1.32c0.68,0,1.29-0.42,1.85-1.26c0.57-0.83,0.84-1.85,0.84-3.03c0-0.67-0.12-1.33-0.38-1.98
		c-0.28-0.67-0.56-1.36-0.84-2.04c0-0.34,0.18-0.64,0.53-0.9c0.35-0.26,0.8-0.39,1.35-0.39C30.63,23.81,31.43,24.98,31.43,27.31z"/>
	<path d="M46.51,33.6c0,0.66-0.49,1.33-1.5,1.98c-0.59,0.39-1.19,0.69-1.8,0.88c-0.61,0.19-1.14,0.29-1.61,0.29
		c-0.78,0-1.24-0.35-1.38-1.03c-0.05-0.42-0.08-0.73-0.11-0.91c-0.02-0.2-0.11-0.28-0.25-0.28c-0.1,0-0.24,0.09-0.42,0.26
		c-0.11,0.11-0.23,0.22-0.35,0.33c-1.17,1.09-2.37,1.63-3.61,1.63c-0.98,0-1.75-0.35-2.29-1.03c-0.55-0.7-0.82-1.68-0.82-2.96
		c0-2.02,0.69-3.95,2.06-5.78c0.76-1,1.58-1.79,2.45-2.34c0.87-0.56,1.67-0.84,2.39-0.84c0.54,0,1.06,0.13,1.57,0.36
		c0.46,0.27,0.93,0.54,1.4,0.82c0.5-0.28,1.01-0.53,1.52-0.73c0.5-0.2,1.01-0.31,1.5-0.31c0.6,0,0.9,0.26,0.9,0.77l-0.03,0.34
		l-0.28,2.34l-0.49,4l-0.07,1.1c0,0.2,0.04,0.33,0.13,0.38c0.1,0.05,0.3,0.09,0.61,0.12C46.36,33.02,46.51,33.23,46.51,33.6z
		 M41.25,27.31c0-0.46-0.15-0.69-0.46-0.69c-0.46,0-1.06,0.64-1.78,1.92c-0.34,0.64-0.61,1.29-0.79,1.94
		c-0.19,0.66-0.27,1.17-0.27,1.54c0,0.52,0.15,0.78,0.46,0.78c0.45,0,0.98-0.54,1.6-1.6c0.4-0.69,0.71-1.4,0.93-2.14
		C41.14,28.34,41.25,27.74,41.25,27.31z"/>
	<path d="M68.26,27.31c0,1.17-0.16,2.28-0.49,3.37c-0.32,1.09-0.77,2.05-1.34,2.9c-1.39,2.03-3.24,3.04-5.57,3.04
		c-1.81,0-3.18-0.77-4.1-2.3c-1.56,1.52-3.2,2.3-4.92,2.3c-1.12,0-2-0.33-2.62-0.99c-0.63-0.64-0.94-1.58-0.94-2.78
		c0-0.54,0.03-1.03,0.1-1.51c0.06-0.47,0.15-0.99,0.28-1.58l0.28-1.4L49,27.94c0-0.29-0.06-0.46-0.16-0.52
		c-0.11-0.07-0.36-0.12-0.73-0.17c-0.29,0-0.42-0.3-0.42-0.89c0-0.63,0.42-1.11,1.27-1.46c0.85-0.35,1.67-0.62,2.46-0.81
		c0.79-0.18,1.42-0.28,1.88-0.28c0.86,0,1.28,0.41,1.28,1.21c0,0.4-0.1,1.29-0.3,2.69l-0.45,2.9c-0.03,0.16-0.07,0.44-0.13,0.81
		c-0.06,0.37-0.08,0.64-0.08,0.82c0,0.55,0.23,0.81,0.69,0.81c1.22,0,2.08-2.33,2.59-7c0.04-0.43,0.11-0.74,0.22-0.91
		c0.1-0.18,0.32-0.36,0.68-0.58c0.35-0.2,0.8-0.37,1.34-0.51c0.55-0.13,1.11-0.2,1.69-0.2c0.68,0,1.12,0.07,1.33,0.2
		c0.22,0.14,0.34,0.42,0.34,0.88c0,0.36-0.06,0.86-0.18,1.51c-0.12,0.65-0.24,1.31-0.36,1.98l-0.42,2.46L61.4,32.1
		c0,0.87,0.39,1.32,1.15,1.32c0.67,0,1.29-0.42,1.84-1.26c0.56-0.83,0.84-1.85,0.84-3.03c0-0.67-0.12-1.33-0.37-1.98
		c-0.28-0.67-0.56-1.36-0.84-2.04c0-0.34,0.18-0.64,0.53-0.9c0.35-0.26,0.8-0.39,1.35-0.39C67.47,23.81,68.26,24.98,68.26,27.31z"/>
	<path d="M83.13,28.78c0,1.99-0.67,3.77-1.99,5.31c-1.51,1.78-3.54,2.67-6.09,2.67c-1.82,0-3.27-0.46-4.33-1.38
		c-1.07-0.91-1.59-2.12-1.59-3.61c0-1.14,0.24-2.22,0.72-3.24c0.47-1.03,1.15-1.93,2.03-2.71c1.55-1.37,3.45-2.06,5.68-2.06
		c1.72,0,3.08,0.46,4.08,1.36C82.62,26.03,83.13,27.25,83.13,28.78z M77.53,27.63c0-0.86-0.25-1.28-0.75-1.28
		c-0.44,0-0.78,0.28-1,0.84c-0.14,0.32-0.29,0.85-0.43,1.54c-0.06,0.32-0.14,0.71-0.23,1.22c-0.24,1.25-0.35,2.19-0.35,2.83
		c0,0.76,0.26,1.13,0.78,1.13c0.49,0,0.87-0.39,1.13-1.16c0.25-0.78,0.46-1.63,0.62-2.58C77.45,29.23,77.53,28.37,77.53,27.63z"/>
	<path d="M97.62,28.78c0,1.99-0.67,3.77-2,5.31c-1.52,1.78-3.54,2.67-6.08,2.67c-1.84,0-3.28-0.46-4.34-1.38
		c-1.06-0.91-1.59-2.12-1.59-3.61c0-1.14,0.25-2.22,0.72-3.24c0.48-1.03,1.15-1.93,2.02-2.71c1.56-1.37,3.45-2.06,5.69-2.06
		c1.71,0,3.07,0.46,4.08,1.36C97.11,26.03,97.62,27.25,97.62,28.78z M92.02,27.63c0-0.86-0.25-1.28-0.75-1.28
		c-0.45,0-0.79,0.28-1.01,0.84c-0.14,0.32-0.27,0.85-0.42,1.54c-0.06,0.32-0.13,0.71-0.23,1.22c-0.24,1.25-0.35,2.19-0.35,2.83
		c0,0.76,0.25,1.13,0.77,1.13c0.5,0,0.88-0.39,1.14-1.16c0.25-0.78,0.46-1.63,0.62-2.58C91.94,29.23,92.02,28.37,92.02,27.63z"/>
</g>
</svg>
